<?xml version="1.0" standalone="no"?>
<!DOCTYPE svg PUBLIC "-//W3C//DTD SVG 20010904//EN"
 "http://www.w3.org/TR/2001/REC-SVG-20010904/DTD/svg10.dtd">
<svg version="1.0" xmlns="http://www.w3.org/2000/svg"
 width="300.000000pt" height="300.000000pt" viewBox="0 0 300.000000 300.000000"
 preserveAspectRatio="xMidYMid meet">
<metadata>
Created by potrace 1.14, written by Peter Selinger 2001-2017
</metadata>
<g transform="translate(0.000000,300.000000) scale(0.100000,-0.100000)"
fill="#000000" stroke="none">
<path d="M1487 2838 c7 -55 13 -78 22 -78 9 0 7 83 -4 99 -13 21 -21 10 -18
-21z"/>
<path d="M1584 2822 c-4 -20 -8 -42 -10 -49 -1 -7 3 -17 10 -22 8 -7 12 -5 14
7 1 9 4 33 8 53 8 49 -12 59 -22 11z"/>
<path d="M1399 2788 c10 -24 25 -44 34 -46 15 -3 14 3 -6 39 -30 59 -53 64
-28 7z"/>
<path d="M1668 2764 c-19 -37 -23 -64 -10 -64 4 0 16 18 26 40 25 51 9 74 -16
24z"/>
<path d="M1310 2763 c0 -19 41 -73 56 -73 14 0 14 2 3 16 -7 9 -18 25 -24 37
-10 21 -35 35 -35 20z"/>
<path d="M1447 2698 c-15 -11 -27 -17 -27 -14 0 9 -33 -26 -52 -56 -10 -15
-18 -34 -18 -43 0 -9 -4 -14 -8 -11 -8 4 -9 -3 -13 -71 -1 -16 -6 -31 -13 -35
-7 -5 -6 -8 4 -8 8 0 16 -10 16 -22 3 -45 8 -68 15 -68 4 0 12 -12 18 -27 6
-16 27 -39 46 -52 l34 -23 -31 -47 c-67 -96 -198 -215 -213 -191 -3 5 4 28 15
51 23 44 23 67 0 168 -15 68 -46 101 -94 101 -52 0 -84 -19 -102 -60 -11 -24
-29 -43 -50 -54 -42 -20 -87 -81 -104 -142 -18 -64 -74 -120 -129 -129 -22 -4
-43 -6 -46 -5 -14 3 -102 -54 -119 -76 -38 -52 -29 -151 16 -175 26 -14 42 -1
22 18 -22 23 -11 71 26 108 29 28 35 30 110 30 44 0 80 -2 80 -5 0 -3 -7 -15
-15 -26 -17 -25 -8 -39 13 -21 13 10 14 9 4 -9 -21 -39 -71 -72 -126 -85 -66
-14 -122 -45 -148 -80 -28 -37 -34 -99 -14 -137 24 -47 42 -41 38 11 -3 36 1
47 25 71 38 38 69 48 125 41 27 -4 48 -8 48 -8 0 -1 -13 -33 -28 -72 -35 -85
-53 -173 -58 -280 -2 -44 -7 -109 -12 -145 -14 -98 -7 -245 15 -330 3 -14 7
-31 9 -39 1 -7 7 -18 13 -24 8 -8 11 -4 12 14 3 62 7 108 14 159 4 30 9 64 10
75 7 58 50 188 82 253 39 77 100 142 133 142 11 0 20 -1 20 -2 0 -2 -9 -27
-20 -55 -31 -82 -45 -151 -54 -268 -3 -33 -8 -96 -12 -140 -11 -145 -11 -168
2 -150 9 12 13 13 16 3 3 -7 7 -3 10 10 5 19 4 21 -15 11 -20 -9 -20 -9 -5 4
10 8 16 17 13 20 -3 4 -2 5 2 2 3 -3 15 2 25 12 10 9 18 13 18 8 0 -4 -8 -14
-17 -21 -11 -8 -13 -13 -6 -14 7 0 10 -7 7 -18 -5 -14 -4 -14 4 -2 6 8 8 18 5
24 -3 5 -1 6 5 2 6 -3 12 -1 15 6 2 7 3 6 2 -2 -2 -8 -6 -24 -11 -35 -7 -18
-6 -17 16 3 26 24 36 27 45 12 3 -5 11 -10 17 -10 6 0 1 9 -12 20 -13 11 -19
20 -14 20 6 0 15 -5 22 -12 6 -6 15 -8 19 -4 4 4 1 12 -7 17 -13 9 -13 10 0 6
8 -2 14 -11 14 -20 -1 -9 2 -14 7 -11 5 3 9 0 9 -5 0 -6 -4 -11 -10 -11 -5 0
-10 -4 -10 -8 0 -5 6 -9 13 -9 10 0 13 14 12 49 -1 26 2 48 7 48 4 0 6 -13 3
-29 -4 -23 -1 -28 13 -27 9 0 20 8 24 16 5 12 7 12 7 -2 1 -10 6 -18 11 -18 6
0 10 8 10 18 0 14 2 15 10 2 5 -8 10 -11 10 -7 0 5 10 1 22 -7 28 -20 44 -21
28 -1 -9 10 -9 15 -1 15 6 0 11 -5 11 -11 0 -5 5 -7 12 -3 7 4 8 3 4 -4 -8
-13 12 -57 21 -48 3 3 0 12 -6 20 -8 9 -8 16 -2 20 9 6 27 -31 23 -47 -7 -23
22 10 35 42 18 42 26 94 25 171 0 30 5 78 12 106 13 50 14 178 2 244 -11 58
-36 141 -68 221 l-30 77 94 143 c95 145 148 248 148 288 0 30 16 18 23 -17 10
-52 58 -140 152 -284 l93 -142 -24 -54 c-76 -172 -102 -329 -77 -467 7 -38 12
-92 11 -120 -2 -66 11 -155 24 -155 5 0 7 -4 4 -8 -2 -4 0 -14 6 -22 8 -12 9
-12 4 3 -3 9 0 17 6 17 6 0 5 7 -3 18 -13 15 -12 16 4 3 10 -8 16 -20 13 -28
-10 -24 3 -13 18 16 19 35 39 44 71 29 20 -9 23 -14 14 -32 -10 -20 -10 -20 5
-2 11 14 13 23 5 32 -8 9 -4 15 13 24 18 8 20 8 7 -1 -15 -11 -14 -14 3 -31
19 -19 33 -24 23 -8 -3 6 3 10 13 10 16 0 19 5 15 23 -4 17 -1 15 12 -8 19
-36 43 -61 26 -28 -7 14 -8 24 -1 28 5 3 10 0 10 -8 0 -10 7 -13 19 -10 13 3
17 11 15 26 -3 16 -2 18 3 6 5 -9 16 -15 26 -13 9 1 15 -2 11 -7 -7 -13 10
-11 23 2 13 13 42 0 64 -28 13 -16 13 -17 -4 -4 -15 12 -17 12 -11 -3 3 -9 10
-16 14 -16 17 0 21 21 8 37 -7 9 -8 14 -2 10 13 -7 13 16 1 103 -4 25 -9 77
-11 115 -5 81 -30 209 -50 257 -28 69 -29 78 -7 78 31 0 94 -62 128 -127 45
-85 69 -165 98 -328 3 -16 8 -64 11 -105 4 -41 10 -79 14 -83 7 -8 39 102 46
158 4 44 5 185 0 217 -2 16 -7 47 -11 70 -4 24 -9 72 -11 108 -4 104 -25 192
-68 293 -18 41 -19 41 47 52 47 8 97 -15 121 -55 24 -41 27 -67 10 -81 -18
-14 -18 -29 -1 -29 24 0 56 44 58 80 4 66 -1 80 -39 118 -26 26 -55 43 -88 51
-99 26 -116 34 -144 63 -16 16 -28 37 -28 46 0 9 -3 25 -7 34 -6 15 -3 16 22
9 15 -4 35 -7 43 -6 8 2 29 5 47 8 63 10 139 -66 123 -124 -10 -34 1 -45 23
-21 38 42 33 126 -11 171 -35 36 -53 45 -130 65 -80 20 -105 37 -129 89 -11
23 -30 63 -43 89 -23 49 -54 83 -92 102 -13 6 -29 25 -37 43 -19 43 -76 72
-120 62 -48 -10 -67 -40 -82 -128 -15 -86 -14 -94 8 -137 9 -17 13 -39 10 -49
-6 -15 -12 -13 -50 16 -74 57 -197 202 -197 232 0 5 15 24 33 43 99 106 70
321 -52 384 -41 21 -114 20 -144 -2z m-367 -589 c0 -5 -9 -9 -20 -9 -11 0 -20
-5 -20 -12 0 -6 -2 -9 -5 -6 -3 3 0 17 6 32 9 20 15 23 26 15 7 -6 13 -15 13
-20z m943 6 c4 -8 3 -16 -1 -19 -10 -6 -43 20 -35 27 11 12 31 8 36 -8z m-219
-1269 c-3 -8 -13 -17 -22 -21 -13 -5 -13 -2 3 15 21 24 26 25 19 6z m48 7 c-6
-2 -9 -10 -6 -15 4 -7 2 -8 -5 -4 -13 9 -5 26 12 25 9 0 8 -2 -1 -6z m138 3
c0 -2 -8 -10 -17 -17 -16 -13 -17 -12 -4 4 13 16 21 21 21 13z m-926 -14 c3
-5 -1 -9 -9 -9 -8 0 -12 4 -9 9 3 4 7 8 9 8 2 0 6 -4 9 -8z m166 -18 c0 -8
-19 -13 -24 -6 -3 5 1 9 9 9 8 0 15 -2 15 -3z m540 -29 c0 -5 -5 -3 -10 5 -5
8 -10 20 -10 25 0 6 5 3 10 -5 5 -8 10 -19 10 -25z m160 31 c0 -2 -7 -6 -15
-10 -8 -3 -15 -1 -15 4 0 6 7 10 15 10 8 0 15 -2 15 -4z m-929 -39 c-10 -9
-11 -8 -5 6 3 10 9 15 12 12 3 -3 0 -11 -7 -18z m312 6 c-3 -7 -6 -13 -8 -13
-2 0 -5 6 -8 13 -3 8 1 14 8 14 7 0 11 -6 8 -14z"/>
<path d="M1730 2670 c-18 -17 -30 -33 -27 -37 9 -8 57 25 64 43 10 27 -4 25
-37 -6z"/>
<path d="M1270 2673 c0 -15 48 -68 55 -61 8 8 -32 68 -46 68 -5 0 -9 -3 -9 -7z"/>
<path d="M1773 2597 c-21 -11 -39 -47 -23 -47 12 0 60 40 60 51 0 11 -8 10
-37 -4z"/>
<path d="M1240 2592 c0 -13 45 -52 60 -52 9 0 8 6 -6 21 -23 25 -54 43 -54 31z"/>
<path d="M1815 810 c-4 -6 -10 -8 -14 -6 -4 3 -8 -1 -8 -9 0 -9 4 -11 11 -6 6
5 19 7 29 6 15 -3 16 -1 6 11 -14 17 -16 17 -24 4z"/>
<path d="M2025 803 c-18 -14 -18 -15 -1 -9 14 5 17 3 12 -11 -6 -14 -4 -15 4
-7 7 7 10 19 8 27 -3 14 -5 14 -23 0z"/>
<path d="M2083 808 c-22 -29 -24 -41 -3 -20 12 13 25 20 29 16 3 -4 0 -9 -6
-11 -7 -3 -13 -10 -13 -15 0 -6 3 -8 7 -5 3 4 13 1 22 -6 14 -10 14 -10 3 5
-10 12 -10 18 -1 23 8 6 7 10 -2 16 -19 12 -25 11 -36 -3z"/>
<path d="M1940 800 c-9 -6 -10 -10 -3 -10 6 0 15 5 18 10 8 12 4 12 -15 0z"/>
<path d="M1177 789 c-9 -6 -21 -8 -26 -5 -10 6 -25 -24 -16 -32 3 -3 5 0 5 6
0 13 36 17 43 5 2 -5 2 -2 1 5 -2 6 4 12 12 12 8 0 13 -4 9 -9 -3 -5 -1 -12 4
-15 12 -8 8 21 -5 33 -5 6 -16 6 -27 0z"/>
<path d="M1230 759 c0 -5 5 -7 10 -4 6 3 10 8 10 11 0 2 -4 4 -10 4 -5 0 -10
-5 -10 -11z"/>
<path d="M1920 760 c-9 -6 -10 -10 -3 -10 6 0 15 5 18 10 8 12 4 12 -15 0z"/>
<path d="M1745 740 c-3 -6 1 -7 9 -4 18 7 21 14 7 14 -6 0 -13 -4 -16 -10z"/>
<path d="M659 655 c0 -5 -2 -18 -4 -27 -2 -11 3 -18 11 -18 9 0 12 -4 9 -10
-3 -5 -2 -10 2 -10 10 0 9 -53 -2 -69 -3 -6 -3 -11 2 -11 15 0 7 -77 -10 -95
-34 -33 -22 -45 47 -45 60 0 64 1 68 25 4 19 1 25 -13 25 -15 0 -18 7 -15 35
2 34 16 62 16 33 0 -8 9 -25 20 -38 11 -13 20 -27 20 -32 0 -5 5 -6 12 -2 7 4
8 3 4 -5 -13 -20 14 -41 53 -41 20 0 41 4 46 8 16 11 12 34 -7 41 -17 6 -68
68 -68 82 0 4 9 10 19 14 24 7 45 58 37 90 -11 41 -42 54 -149 57 -60 2 -97
-1 -98 -7z m171 -65 c15 -24 -8 -50 -44 -50 -30 0 -34 3 -34 28 0 15 5 30 11
34 16 10 58 3 67 -12z"/>
<path d="M1030 659 c-32 -13 -59 -38 -75 -69 -18 -34 -26 -120 -12 -120 6 0 7
-3 4 -7 -4 -3 -2 -12 4 -20 6 -7 8 -13 5 -13 -12 0 54 -60 67 -61 97 -9 135 7
168 71 38 70 19 158 -45 211 -22 18 -81 22 -116 8z m56 -49 c-5 8 3 2 18 -14
14 -16 23 -33 20 -37 -3 -5 -1 -9 4 -9 11 0 5 -80 -9 -107 -34 -65 -111 -4
-104 82 2 17 3 35 4 42 1 7 11 21 23 32 17 17 24 18 37 8 12 -10 13 -9 7 3z"/>
<path d="M1225 647 c-11 -16 -10 -22 6 -38 10 -10 20 -23 20 -29 1 -5 2 -13 4
-17 1 -5 5 -26 10 -48 11 -50 10 -47 18 -65 4 -8 8 -28 10 -45 3 -27 7 -30 38
-30 31 0 35 3 48 43 15 49 20 49 28 0 7 -44 18 -56 48 -50 19 3 27 14 36 46 5
22 17 68 26 101 8 33 24 77 35 98 11 21 18 40 17 42 -2 2 -24 5 -48 6 -37 3
-45 0 -51 -16 -8 -23 -3 -38 10 -30 5 3 7 -5 4 -17 -12 -54 -16 -74 -17 -90
-2 -27 -13 -8 -26 45 -9 39 -9 52 1 64 23 28 18 43 -15 44 -49 2 -72 -2 -76
-13 -2 -6 -6 -6 -11 2 -4 6 -29 13 -55 13 -36 2 -51 -2 -60 -16z m128 -42 c17
-17 18 -106 1 -112 -7 -2 -14 12 -18 34 -4 21 -9 50 -12 66 -6 30 6 35 29 12z"/>
<path d="M1650 650 c-19 -10 -43 -32 -54 -50 -21 -36 -32 -140 -15 -140 5 0 7
-5 3 -12 -4 -6 0 -16 8 -22 8 -6 17 -19 21 -30 5 -11 13 -16 23 -12 8 3 12 2
9 -4 -3 -6 4 -11 17 -11 13 -1 33 -3 45 -4 36 -4 97 30 116 64 78 134 -43 288
-173 221z m96 -42 c5 4 6 3 1 -2 -4 -5 0 -20 9 -34 18 -27 14 -113 -6 -137
-13 -16 -48 -20 -66 -7 -32 21 -44 95 -24 147 11 28 49 48 66 34 6 -5 15 -5
20 -1z"/>
<path d="M1904 662 c-25 -2 -33 -9 -37 -28 -3 -16 0 -24 9 -24 16 0 16 0 18
-105 1 -51 -3 -84 -11 -90 -6 -5 -13 -19 -15 -29 -3 -18 3 -19 74 -18 86 2
112 10 146 42 31 29 42 61 42 118 0 55 -28 108 -64 122 -27 10 -115 17 -162
12z m121 -70 c3 -7 9 -11 14 -7 10 6 11 -1 13 -79 1 -40 -3 -53 -22 -68 -28
-23 -60 -23 -61 0 -4 44 -5 158 -1 164 5 13 51 5 57 -10z"/>
<path d="M2235 656 c-34 -15 -68 -52 -75 -81 -11 -43 -5 -136 9 -144 7 -5 11
-13 7 -19 -3 -6 3 -13 14 -17 11 -3 20 -10 20 -14 0 -8 3 -9 68 -14 107 -9
182 126 128 231 -31 60 -109 86 -171 58z m96 -75 c1 -9 1 -19 0 -23 0 -5 3 -8
9 -8 11 0 4 -85 -11 -111 -6 -12 -20 -19 -39 -19 -46 0 -67 43 -61 128 0 13
12 34 26 47 21 22 27 24 50 13 14 -6 26 -18 26 -27z"/>
</g>
</svg>
